<?xml version="1.0" encoding="iso-8859-1"?>
<!-- Uploaded to: SVG Repo, www.svgrepo.com, Generator: SVG Repo Mixer Tools -->
<svg fill="#000000" height="800px" width="800px" version="1.1" id="Layer_1" xmlns="http://www.w3.org/2000/svg" xmlns:xlink="http://www.w3.org/1999/xlink" 
	 viewBox="0 0 512.001 512.001" xml:space="preserve">
<g>
	<g>
		<path d="M493.397,301.762c4.257,4.256,11.155,4.257,15.412,0c4.256-4.256,4.256-11.155,0-15.411
			c-14.699-14.699-32.771-24.794-52.469-29.577l26.227-84.214c1.789-5.746-1.419-11.855-7.164-13.645
			c-5.748-1.79-11.855,1.418-13.645,7.164l-25.342,81.37c-1.917-3.596-5.701-6.046-10.06-6.046h-46.16l6.852-61.725
			c1.503-13.535-8.43-25.651-21.972-26.86c-33.736-3.012-42.415-3.413-42.415-3.413l7.928,2.889l-60.299-2.491l-72.029-31.469
			c-8.242-3.599-17.84,0.162-21.44,8.402c-1.348,3.086-1.663,6.362-1.098,9.442c-6.941,14.442-58.04,120.766-59.706,124.232
			c-8.899-3.257-18.224-5.399-27.755-6.303c-5.999-0.568-11.309,3.829-11.878,9.82c-0.568,5.991,3.828,11.309,9.819,11.878
			c6.952,0.66,13.763,2.15,20.313,4.373l-5.387,11.21c-7.412-2.356-15.298-3.637-23.481-3.637C34.833,287.753,0,322.586,0,365.402
			c0,42.816,34.833,77.649,77.648,77.649c42.815,0,77.649-34.833,77.649-77.649c0-26.876-13.73-50.602-34.539-64.546l5.407-11.249
			c5.435,3.477,10.512,7.546,15.122,12.156c16.999,16.998,26.361,39.598,26.361,63.639c0,7.649,7.715,12.965,14.895,10.13
			c0.357-3.434,1.224-6.874,2.647-10.218l3.876-9.107c-2.135-26.396-13.434-50.924-32.367-69.857
			c-6.358-6.358-13.445-11.866-21.049-16.48l18.695-38.897l44.1,103.196l11.826-27.788l-20.54-48.065l35.932,11.899
			c5.245-12.324,16.284-17.514,26.918-15.953c10.057,1.478,57.78,8.493,74.09,10.891l-72.397,6.891
			c-6.407,0.61-11.968,4.678-14.489,10.6l-38.161,89.664c-3.798,8.92,0.358,19.23,9.277,23.027
			c8.922,3.796,19.23-0.359,23.027-9.277L268,306.005c7.093-0.675,59.079-5.623,66.34-6.314l3.11,2.605
			c-10.636,15.488-17.15,33.346-18.963,52.209h-51.716l-9.276,21.794h95.394c5.316,37.673,37.752,66.752,76.869,66.752
			c42.816,0,77.649-34.833,77.649-77.649s-34.833-77.649-77.649-77.649c-19.938,0-38.141,7.559-51.906,19.956l-9.565-8.012
			c16.731-15.677,38.432-24.294,61.471-24.294C453.797,275.402,476.399,284.763,493.397,301.762z M77.649,399.463
			c-18.78,0-34.06-15.279-34.06-34.061s15.279-34.061,34.06-34.061c1.407,0,2.791,0.096,4.153,0.262l-13.975,29.078
			c-2.607,5.424-0.323,11.934,5.101,14.543c5.429,2.608,11.937,0.32,14.543-5.102l13.969-29.064
			c6.331,6.187,10.271,14.811,10.271,24.344C111.71,384.184,96.431,399.463,77.649,399.463z M265.224,198.486
			c-2.51,0.535-5.005,0.23-7.189-0.727c-6.638-2.901-51.935-22.692-59.878-26.161c0.703,4.943,3.645,9.503,8.376,12.056
			l55.716,30.045c4.184,2.257,9.141,2.568,13.565,0.869l26.465-10.163l-5.248,47.283l-101.633-49.848
			c-9.357-4.59-20.033-3.44-28.049,2.075c24.72-51.437,5.92-12.318,25.24-52.518l67.461,29.473c1.848,0.808,3.831,1.265,5.846,1.348
			l63.349,2.617C315.828,187.695,269.397,197.596,265.224,198.486z M352.889,354.503h-12.455
			c1.642-13.686,6.361-26.664,13.832-38.121l9.585,8.029C358.248,333.388,354.43,343.582,352.889,354.503z M436.755,357.049
			l-24.729-20.714c5.169-3.167,11.24-4.994,17.733-4.994c18.781,0,34.061,15.279,34.061,34.061s-15.279,34.061-34.061,34.061
			c-14.969,0-27.706-9.712-32.262-23.163h32.262c4.583,0,8.676-2.868,10.241-7.175C441.564,364.818,440.269,359.992,436.755,357.049
			z"/>
	</g>
</g>
<g>
	<g>
		<circle cx="348.21" cy="104.885" r="35.936"/>
	</g>
</g>
</svg>