<?xml version="1.0" encoding="iso-8859-1"?>
<!-- Uploaded to: SVG Repo, www.svgrepo.com, Generator: SVG Repo Mixer Tools -->
<svg fill="#000000" height="800px" width="800px" version="1.1" id="Layer_1" xmlns="http://www.w3.org/2000/svg" xmlns:xlink="http://www.w3.org/1999/xlink" 
	 viewBox="0 0 512 512" xml:space="preserve">
<g>
	<g>
		<path d="M512,250.182l-34.909-128H244.364H0v162.909h34.909V320H0v23.273v11.636h59.648c5.168,20.075,23.393,34.909,45.079,34.909
			s39.912-14.834,45.079-34.909h189.114c5.168,20.075,23.393,34.909,45.079,34.909s39.912-14.834,45.079-34.909H512v-11.636V320
			h-23.273l-11.636-34.909H512V250.182z M104.727,366.545c-12.854,0-23.273-10.419-23.273-23.273S91.874,320,104.727,320
			S128,330.419,128,343.273S117.581,366.545,104.727,366.545z M384,366.545c-12.854,0-23.273-10.419-23.273-23.273
			S371.146,320,384,320s23.273,10.419,23.273,23.273S396.854,366.545,384,366.545z M407.273,203.636h-81.455h-81.455h-81.455H81.455
			H34.909v-46.545h46.545h81.455h81.455h81.455h81.455h46.545l12.695,46.545H407.273z"/>
	</g>
</g>
</svg>