<?xml version="1.0" encoding="iso-8859-1"?>
<!-- Uploaded to: SVG Repo, www.svgrepo.com, Generator: SVG Repo Mixer Tools -->
<svg fill="#000000" height="800px" width="800px" version="1.1" id="Layer_1" xmlns="http://www.w3.org/2000/svg" xmlns:xlink="http://www.w3.org/1999/xlink" 
	 viewBox="0 0 512 512" xml:space="preserve">
<g>
	<g>
		<path d="M500.093,345.302v-23.814h-23.814l-11.907-35.721h35.721v-23.814L392.93,238.14l-59.535-83.349h-47.628v-23.814h35.721
			V83.349H83.349v47.628h35.721v23.814H71.442l-59.535,71.442v59.535h35.721v35.721H11.907v23.814H0v35.721h47.965
			c2.962,26.789,25.665,47.628,53.244,47.628c27.579,0,50.282-20.838,53.244-47.628h203.093
			c2.962,26.789,25.665,47.628,53.244,47.628c27.579,0,50.282-20.838,53.244-47.628H512v-35.721H500.093z M154.791,130.977h95.256
			v23.814h-95.256V130.977z M48.483,238.14l34.706-47.628h0.16v47.628H48.483z M101.209,401.86
			c-14.797,0-26.791-11.994-26.791-26.791s11.994-26.791,26.791-26.791S128,360.273,128,375.07S116.006,401.86,101.209,401.86z
			 M202.419,238.14H119.07v-47.628h83.349V238.14z M238.14,238.14v-47.628h76.874l34.019,47.628H238.14z M410.791,401.86
			c-14.797,0-26.791-11.994-26.791-26.791s11.994-26.791,26.791-26.791s26.791,11.994,26.791,26.791S425.588,401.86,410.791,401.86z
			"/>
	</g>
</g>
</svg>